# xmcd CD database file
#
# Track frame offsets:
#	150
#	9198
#	24681
#	34024
#	46458
#	61741
#	69047
#	81513
#	95008
#	108513
#	119502
#	132043
#	144996
#	156043
#
# Disc length: 2187 seconds
#
# Revision: 0
# Processed by: cddbd v1.5.2PL0 Copyright (c) Steve Scherf et al.
# Submitted via: CDex 1.51
#
DISCID=b008890e
DTITLE=François Hadji-Lazaro - Ma tata, mon pingouin, Gérard et les autres...
DYEAR=2011
DGENRE=Enfants
TTITLE0=La visite au zoo
TTITLE1=Des continents incroyables
TTITLE2=Avec Mémé au supermarché
TTITLE3=Je prends mon bain avec mon pingouin
TTITLE4=Grâce au nounours, tout s'est arrangé
TTITLE5=Mon grand-père
TTITLE6=Ma moman je ne l'aime pas
TTITLE7=L'éboueur
TTITLE8=Madame la Fée est au chômage
TTITLE9=Ma maman, elle écoute que ça
TTITLE10=Du poulet
TTITLE11=Même si j'ai tort, l'école j'adore
TTITLE12=Le vieux poussin
TTITLE13=La charlotte aux poires
EXTD=YEAR: 2011
EXTT0=
EXTT1=
EXTT2=
EXTT3=
EXTT4=
EXTT5=
EXTT6=
EXTT7=
EXTT8=
EXTT9=
EXTT10=
EXTT11=
EXTT12=
EXTT13=
PLAYORDER=
